<svg width="120" height="120" viewBox="0 0 120 120" fill="none" xmlns="http://www.w3.org/2000/svg">
<g opacity="0.87">
<path d="M91.1362 92.1576C90.3356 92.8874 87.597 94.6486 84.6193 94.6486L60.28 94.6C60.5729 93.6269 60.529 93.3593 62.5695 91.4132C64.5038 89.68 67.0077 88.7125 69.6086 88.6934H93.4451C93.2499 89.7102 91.9319 91.4326 91.1362 92.1576Z" fill="#9FB3FB"/>
<path opacity="0.6" d="M110.873 72.5345C110.072 73.2595 107.334 75.0208 104.356 75.0208L80.0167 74.977C80.3096 74.0039 80.2657 73.7314 82.3061 71.7901C84.238 70.053 86.7435 69.0849 89.3453 69.0703H113.182C112.982 70.1018 111.669 71.8047 110.873 72.5345Z" fill="#9FB3FB"/>
<path opacity="0.6" d="M101.061 82.3371C100.26 83.0669 97.5216 84.8283 94.5439 84.8283L70.2046 84.7796C70.5024 83.8065 70.4535 83.5389 72.4989 81.5927C74.4307 79.8587 76.9335 78.8911 79.5332 78.873H103.37C103.169 79.8899 101.861 81.6122 101.061 82.3371Z" fill="#9FB3FB"/>
<path d="M70.0483 33.0099C74.8936 28.1825 81.4641 25.4707 88.315 25.4707C95.1659 25.4707 101.736 28.1825 106.582 33.0099L52.5285 86.8892C50.1301 89.2806 47.2824 91.1777 44.1481 92.472C41.0139 93.7663 37.6545 94.4324 34.2619 94.4324C30.8693 94.4324 27.5099 93.7663 24.3757 92.472C21.2415 91.1777 18.3937 89.2806 15.9952 86.8892L70.0483 33.0099Z" fill="url(#paint0_linear_36_424)"/>
<path d="M43.3517 32.8929C40.9532 30.5014 38.1055 28.6043 34.9713 27.31C31.837 26.0157 28.4777 25.3496 25.085 25.3496C21.6924 25.3496 18.3331 26.0157 15.1988 27.31C12.0646 28.6043 9.21685 30.5014 6.81836 32.8929L31.143 57.1371L49.4096 38.9308L43.3517 32.8929Z" fill="url(#paint1_radial_36_424)"/>
</g>
<defs>
<linearGradient id="paint0_linear_36_424" x1="97.4484" y1="23.9117" x2="25.3682" y2="96.2311" gradientUnits="userSpaceOnUse">
<stop stop-color="#3A78FF"/>
<stop offset="0.55" stop-color="#0F40F5"/>
<stop offset="1" stop-color="#213CD6"/>
</linearGradient>
<radialGradient id="paint1_radial_36_424" cx="0" cy="0" r="1" gradientUnits="userSpaceOnUse" gradientTransform="translate(10.9637 25.1737) rotate(47.7008) scale(37.8966 66.029)">
<stop offset="0.43" stop-color="#FFD022"/>
<stop offset="1" stop-color="#FFA21D"/>
</radialGradient>
</defs>
</svg>
